name Walk2.mot
datacolumns 19
datarows 22
range 1.64400000 1.66500000
endheader

                time	   L_ground_force_vx	   L_ground_force_vy	   L_ground_force_vz	   L_ground_force_px	   L_ground_force_py	   L_ground_force_pz	   R_ground_force_vx	   R_ground_force_vy	   R_ground_force_vz	   R_ground_force_px	   R_ground_force_py	   R_ground_force_pz	   L_ground_torque_x	   L_ground_torque_y	   L_ground_torque_z	   R_ground_torque_x	   R_ground_torque_y	   R_ground_torque_z	
          1.64400000	         31.02033449	        923.18486055	         83.98997375	         -0.28544876	          0.00000000	         -0.13003770	         -0.00656802	          0.23106026	          0.01029190	          0.00015242	          0.00000000	          0.00004548	          0.00000000	         -2.15225526	          0.00000000	          0.00000000	          0.00026838	          0.00000000	
          1.64500000	         31.53850702	        925.20301460	         84.23921945	         -0.28514154	          0.00000000	         -0.13009991	         -0.00787535	          0.25070618	          0.01118686	          0.00016246	          0.00000000	          0.00004836	          0.00000000	         -2.16281635	          0.00000000	          0.00000000	          0.00044393	          0.00000000	
          1.64600000	         32.06455587	        927.23327386	         84.48692620	         -0.28483547	          0.00000000	         -0.13016128	         -0.00927164	          0.27114230	          0.01211878	          0.00017276	          0.00000000	          0.00005131	          0.00000000	         -2.17350773	          0.00000000	          0.00000000	          0.00063396	          0.00000000	
          1.64700000	         32.59884583	        929.27509749	         84.73309460	         -0.28453060	          0.00000000	         -0.13022179	         -0.01075938	          0.29235766	          0.01308726	          0.00018330	          0.00000000	          0.00005432	          0.00000000	         -2.18431002	          0.00000000	          0.00000000	          0.00083902	          0.00000000	
          1.64800000	         33.14173295	        931.32791310	         84.97772931	         -0.28422696	          0.00000000	         -0.13028146	         -0.01234094	          0.31433704	          0.01409167	          0.00019407	          0.00000000	          0.00005739	          0.00000000	         -2.19520301	          0.00000000	          0.00000000	          0.00105968	          0.00000000	
          1.64900000	         33.69356398	        933.39111905	         85.22083875	         -0.28392460	          0.00000000	         -0.13034027	         -0.01401850	          0.33706068	          0.01513123	          0.00020503	          0.00000000	          0.00006050	          0.00000000	         -2.20616566	          0.00000000	          0.00000000	          0.00129647	          0.00000000	
          1.65000000	         34.25467518	        935.46408804	         85.46243472	         -0.28362356	          0.00000000	         -0.13039823	         -0.01579405	          0.36050388	          0.01620490	          0.00021617	          0.00000000	          0.00006366	          0.00000000	         -2.21717615	          0.00000000	          0.00000000	          0.00154991	          0.00000000	
          1.65100000	         34.82539041	        937.54617125	         85.70253207	         -0.28332385	          0.00000000	         -0.13045534	         -0.01766937	          0.38463669	          0.01731141	          0.00022745	          0.00000000	          0.00006684	          0.00000000	         -2.22821185	          0.00000000	          0.00000000	          0.00182049	          0.00000000	
          1.65200000	         35.40601882	        939.63670258	         85.94114854	         -0.28302552	          0.00000000	         -0.13051160	         -0.01964598	          0.40942353	          0.01844925	          0.00023884	          0.00000000	          0.00007004	          0.00000000	         -2.23924937	          0.00000000	          0.00000000	          0.00210870	          0.00000000	
          1.65300000	         35.99685267	        941.73500235	         86.17830482	         -0.28272859	          0.00000000	         -0.13056701	         -0.02172512	          0.43482281	          0.01961663	          0.00025030	          0.00000000	          0.00007325	          0.00000000	         -2.25026486	          0.00000000	          0.00000000	          0.00241499	          0.00000000	
          1.65400000	         36.59816567	        943.84038068	         86.41402475	         -0.28243307	          0.00000000	         -0.13062157	         -0.02390775	          0.46078654	          0.02081147	          0.00026179	          0.00000000	          0.00007646	          0.00000000	         -2.26123443	          0.00000000	          0.00000000	          0.00273976	          0.00000000	
          1.65500000	         37.21021200	        945.95214047	         86.64833568	         -0.28213900	          0.00000000	         -0.13067530	         -0.02619447	          0.48725994	          0.02203140	          0.00027327	          0.00000000	          0.00007965	          0.00000000	         -2.27213467	          0.00000000	          0.00000000	          0.00308340	          0.00000000	
          1.65600000	         37.83322592	        948.06957982	         86.88126892	         -0.28184637	          0.00000000	         -0.13072819	         -0.02858549	          0.51418104	          0.02327370	          0.00028469	          0.00000000	          0.00008281	          0.00000000	         -2.28294311	          0.00000000	          0.00000000	          0.00344623	          0.00000000	
          1.65700000	         38.46742183	        950.19199372	         87.11286032	         -0.28155521	          0.00000000	         -0.13078025	         -0.03108065	          0.54148026	          0.02453532	          0.00029599	          0.00000000	          0.00008592	          0.00000000	         -2.29363859	          0.00000000	          0.00000000	          0.00382855	          0.00000000	
          1.65800000	         39.11299468	        952.31867480	         87.34315095	         -0.28126552	          0.00000000	         -0.13083149	         -0.03367931	          0.56908001	          0.02581285	          0.00030712	          0.00000000	          0.00008896	          0.00000000	         -2.30420140	          0.00000000	          0.00000000	          0.00423059	          0.00000000	
          1.65900000	         39.77012007	        954.44891348	         87.57218736	         -0.28097731	          0.00000000	         -0.13088193	         -0.03638035	          0.59689421	          0.02710249	          0.00031801	          0.00000000	          0.00009192	          0.00000000	         -2.31461318	          0.00000000	          0.00000000	          0.00465251	          0.00000000	
          1.66000000	         40.43895395	        956.58199821	         87.80002162	         -0.28069057	          0.00000000	         -0.13093156	         -0.03918215	          0.62482792	          0.02840004	          0.00032861	          0.00000000	          0.00009478	          0.00000000	         -2.32485652	          0.00000000	          0.00000000	          0.00509442	          0.00000000	
          1.66100000	         41.11963167	        958.71721634	         88.02671097	         -0.28040530	          0.00000000	         -0.13098041	         -0.04208248	          0.65277690	          0.02970088	          0.00033883	          0.00000000	          0.00009751	          0.00000000	         -2.33491442	          0.00000000	          0.00000000	          0.00555636	          0.00000000	
          1.66200000	         41.81226694	        960.85385568	         88.25231757	         -0.28012149	          0.00000000	         -0.13102848	         -0.04507853	          0.68062713	          0.03099993	          0.00034860	          0.00000000	          0.00010008	          0.00000000	         -2.34476986	          0.00000000	          0.00000000	          0.00603828	          0.00000000	
          1.66300000	         42.51695102	        962.99120614	         88.47690845	         -0.27983912	          0.00000000	         -0.13107579	         -0.04816681	          0.70825441	          0.03229167	          0.00035784	          0.00000000	          0.00010249	          0.00000000	         -2.35440563	          0.00000000	          0.00000000	          0.00654004	          0.00000000	
          1.66400000	         43.23375235	        965.12856062	         88.70055578	         -0.27955818	          0.00000000	         -0.13112234	         -0.05134315	          0.73552393	          0.03357008	          0.00036646	          0.00000000	          0.00010469	          0.00000000	         -2.36380450	          0.00000000	          0.00000000	          0.00706142	          0.00000000	
          1.66500000	         43.96271684	        967.26521494	         88.92333708	         -0.27927865	          0.00000000	         -0.13116814	         -0.05460261	          0.76228983	          0.03482865	          0.00037437	          0.00000000	          0.00010667	          0.00000000	         -2.37294956	          0.00000000	          0.00000000	          0.00760209	          0.00000000	
